<svg xmlns="http://www.w3.org/2000/svg" xmlns:xlink="http://www.w3.org/1999/xlink" width="1000" zoomAndPan="magnify" viewBox="0 0 750 449.999984" height="600" preserveAspectRatio="xMidYMid meet" version="1.0"><path fill="#000000" d="M 496.320312 191.015625 C 492.90625 191.015625 488.828125 191.546875 484.949219 192.257812 C 470.84375 143.941406 426.683594 110.175781 375.058594 110.175781 C 323.429688 110.175781 279.277344 143.941406 265.167969 192.257812 C 261.289062 191.546875 257.214844 191.015625 253.796875 191.015625 C 212.941406 191.015625 179.691406 224.261719 179.691406 265.121094 C 179.691406 305.976562 212.941406 339.222656 253.796875 339.222656 L 496.320312 339.222656 C 537.179688 339.222656 570.425781 305.976562 570.425781 265.121094 C 570.425781 224.261719 537.179688 191.015625 496.320312 191.015625 Z M 496.320312 312.277344 L 253.796875 312.277344 C 227.792969 312.277344 206.640625 291.117188 206.640625 265.121094 C 206.640625 239.121094 227.792969 217.960938 253.796875 217.960938 C 255.664062 217.960938 258.667969 218.421875 261.84375 219.054688 L 261.84375 231.4375 C 261.84375 238.875 267.878906 244.910156 275.316406 244.910156 C 282.753906 244.910156 288.789062 238.875 288.789062 231.4375 L 288.789062 209.703125 C 296.035156 167.597656 332.160156 137.121094 375.058594 137.121094 C 417.980469 137.121094 454.117188 167.632812 461.34375 209.773438 L 461.34375 231.4375 C 461.34375 238.875 467.378906 244.910156 474.816406 244.910156 C 482.261719 244.910156 488.292969 238.875 488.292969 231.4375 L 488.292969 219.0625 C 491.457031 218.425781 494.476562 217.960938 496.320312 217.960938 C 522.316406 217.960938 543.476562 239.121094 543.476562 265.121094 C 543.476562 291.117188 522.316406 312.277344 496.320312 312.277344 Z M 496.320312 312.277344 " fill-opacity="1" fill-rule="nonzero"/></svg>