<svg xmlns="http://www.w3.org/2000/svg" xmlns:xlink="http://www.w3.org/1999/xlink" width="1000" zoomAndPan="magnify" viewBox="0 0 750 449.999984" height="600" preserveAspectRatio="xMidYMid meet" version="1.0"><defs><clipPath id="6fa4311a9d"><path d="M 297.605469 108 L 452.339844 108 L 452.339844 340.324219 L 297.605469 340.324219 Z M 297.605469 108 " clip-rule="nonzero"/></clipPath></defs><g clip-path="url(#6fa4311a9d)"><path fill="#000000" d="M 374.914062 108.160156 C 379.898438 129.453125 385.617188 146.457031 391.980469 159.085938 C 398.34375 171.714844 408.085938 185.394531 421.152344 200.15625 L 426.777344 206.425781 C 443.84375 225.414062 452.359375 244.457031 452.359375 263.445312 C 452.359375 284.472656 444.769531 302.496094 429.570312 317.523438 C 414.3125 332.546875 396.136719 340.097656 374.953125 340.097656 C 353.828125 340.097656 335.683594 332.546875 320.429688 317.523438 C 305.210938 302.496094 297.605469 284.472656 297.605469 263.445312 C 297.605469 244.457031 306.117188 225.414062 323.1875 206.425781 L 328.8125 200.15625 C 341.859375 185.394531 351.597656 171.714844 357.980469 159.085938 C 364.324219 146.457031 370.003906 129.453125 374.914062 108.160156 Z M 323.675781 252.15625 C 323.28125 247.855469 326.46875 244.042969 330.773438 243.644531 C 335.097656 243.25 338.914062 246.4375 339.289062 250.742188 C 340.269531 261.160156 342.558594 270.769531 346.914062 279.054688 C 351.128906 287.058594 357.394531 293.945312 366.457031 299.253906 C 370.195312 301.441406 371.441406 306.253906 369.253906 309.972656 C 367.058594 313.710938 362.246094 314.957031 358.527344 312.769531 C 346.726562 305.859375 338.550781 296.871094 333.019531 286.359375 C 327.640625 276.128906 324.84375 264.558594 323.675781 252.15625 Z M 323.675781 252.15625 " fill-opacity="1" fill-rule="evenodd"/></g></svg>