<svg xmlns="http://www.w3.org/2000/svg" xmlns:xlink="http://www.w3.org/1999/xlink" width="1000" zoomAndPan="magnify" viewBox="0 0 750 449.999984" height="600" preserveAspectRatio="xMidYMid meet" version="1.0"><defs><clipPath id="7f0a95ca5a"><path d="M 276.476562 183 L 473.726562 183 L 473.726562 203 L 276.476562 203 Z M 276.476562 183 " clip-rule="nonzero"/></clipPath><clipPath id="1d60b2093a"><path d="M 276.476562 151 L 473.726562 151 L 473.726562 171 L 276.476562 171 Z M 276.476562 151 " clip-rule="nonzero"/></clipPath><clipPath id="334ae60753"><path d="M 276.476562 247 L 473.726562 247 L 473.726562 267 L 276.476562 267 Z M 276.476562 247 " clip-rule="nonzero"/></clipPath><clipPath id="779ae1ce97"><path d="M 276.476562 215 L 473.726562 215 L 473.726562 235 L 276.476562 235 Z M 276.476562 215 " clip-rule="nonzero"/></clipPath><clipPath id="0d44799021"><path d="M 276.476562 279 L 473.726562 279 L 473.726562 299 L 276.476562 299 Z M 276.476562 279 " clip-rule="nonzero"/></clipPath></defs><g clip-path="url(#7f0a95ca5a)"><path fill="#000000" d="M 472.246094 195.246094 C 470.792969 194.042969 457.832031 183.441406 448.722656 183.441406 C 443.339844 183.441406 439.199219 186.796875 435.511719 189.777344 C 432.65625 192.054688 429.964844 194.25 427.476562 194.25 C 425.242188 194.25 422.675781 192.136719 419.941406 189.902344 C 416.253906 186.878906 412.074219 183.441406 406.605469 183.441406 C 401.183594 183.441406 397.125 186.835938 393.519531 189.820312 C 390.746094 192.136719 388.179688 194.292969 385.734375 194.292969 C 383.210938 194.292969 380.515625 192.097656 377.660156 189.738281 C 374.097656 186.796875 370.039062 183.484375 364.863281 183.484375 C 359.480469 183.484375 355.339844 186.835938 351.652344 189.820312 C 348.796875 192.097656 346.105469 194.292969 343.621094 194.292969 C 341.175781 194.292969 338.566406 192.097656 335.835938 189.820312 C 332.230469 186.835938 328.171875 183.441406 322.746094 183.441406 C 317.324219 183.441406 313.265625 186.835938 309.660156 189.820312 C 306.886719 192.136719 304.320312 194.292969 301.875 194.292969 C 297.488281 194.292969 288.335938 188.496094 283.242188 184.394531 C 281.460938 182.945312 278.851562 183.234375 277.402344 185.015625 C 275.953125 186.796875 276.242188 189.40625 278.023438 190.855469 C 279.515625 192.054688 292.808594 202.617188 301.875 202.617188 C 307.300781 202.617188 311.359375 199.21875 314.960938 196.238281 C 317.738281 193.917969 320.304688 191.765625 322.746094 191.765625 C 325.191406 191.765625 327.800781 193.960938 330.535156 196.238281 C 334.136719 199.21875 338.195312 202.617188 343.621094 202.617188 C 349.003906 202.617188 353.144531 199.261719 356.828125 196.28125 C 359.6875 194.003906 362.378906 191.808594 364.863281 191.808594 C 367.101562 191.808594 369.667969 193.917969 372.402344 196.15625 C 376.085938 199.179688 380.269531 202.617188 385.734375 202.617188 C 391.160156 202.617188 395.21875 199.21875 398.820312 196.238281 C 401.597656 193.917969 404.164062 191.765625 406.605469 191.765625 C 409.132812 191.765625 411.824219 193.960938 414.683594 196.320312 C 418.242188 199.261719 422.300781 202.574219 427.476562 202.574219 C 432.863281 202.574219 437.003906 199.21875 440.6875 196.238281 C 443.546875 193.960938 446.238281 191.765625 448.722656 191.765625 C 453.070312 191.765625 461.972656 197.523438 466.902344 201.621094 C 467.6875 202.242188 468.601562 202.574219 469.550781 202.574219 C 470.753906 202.574219 471.914062 202.078125 472.78125 201.082031 C 474.230469 199.304688 473.984375 196.695312 472.246094 195.246094 Z M 472.246094 195.246094 " fill-opacity="1" fill-rule="nonzero"/></g><g clip-path="url(#1d60b2093a)"><path fill="#000000" d="M 278.023438 158.761719 C 279.515625 159.960938 292.808594 170.523438 301.875 170.523438 C 307.300781 170.523438 311.359375 167.125 314.960938 164.144531 C 317.738281 161.824219 320.304688 159.671875 322.746094 159.671875 C 325.191406 159.671875 327.800781 161.867188 330.535156 164.144531 C 334.136719 167.125 338.195312 170.523438 343.621094 170.523438 C 349.003906 170.523438 353.144531 167.167969 356.828125 164.1875 C 359.6875 161.90625 362.378906 159.714844 364.863281 159.714844 C 367.101562 159.714844 369.667969 161.824219 372.402344 164.0625 C 376.085938 167.085938 380.269531 170.523438 385.734375 170.523438 C 391.160156 170.523438 395.21875 167.125 398.820312 164.144531 C 401.597656 161.824219 404.164062 159.671875 406.605469 159.671875 C 409.132812 159.671875 411.824219 161.867188 414.683594 164.226562 C 418.242188 167.167969 422.300781 170.480469 427.476562 170.480469 C 432.863281 170.480469 437.003906 167.125 440.6875 164.144531 C 443.546875 161.867188 446.238281 159.671875 448.722656 159.671875 C 453.070312 159.671875 461.972656 165.429688 466.902344 169.527344 C 467.6875 170.148438 468.601562 170.480469 469.550781 170.480469 C 470.753906 170.480469 471.914062 169.984375 472.78125 168.988281 C 474.230469 167.207031 473.984375 164.601562 472.246094 163.148438 C 470.792969 161.90625 457.832031 151.347656 448.722656 151.347656 C 443.339844 151.347656 439.199219 154.703125 435.511719 157.683594 C 432.65625 159.960938 429.964844 162.15625 427.476562 162.15625 C 425.242188 162.15625 422.675781 160.042969 419.941406 157.808594 C 416.253906 154.785156 412.074219 151.347656 406.605469 151.347656 C 401.183594 151.347656 397.125 154.742188 393.519531 157.726562 C 390.746094 160.042969 388.179688 162.199219 385.734375 162.199219 C 383.210938 162.199219 380.515625 160.003906 377.660156 157.640625 C 374.097656 154.703125 370.039062 151.390625 364.863281 151.390625 C 359.480469 151.390625 355.339844 154.742188 351.652344 157.726562 C 348.796875 160.003906 346.105469 162.199219 343.621094 162.199219 C 341.175781 162.199219 338.566406 160.003906 335.832031 157.726562 C 332.230469 154.742188 328.171875 151.347656 322.746094 151.347656 C 317.324219 151.347656 313.265625 154.742188 309.660156 157.726562 C 306.886719 160.042969 304.320312 162.199219 301.875 162.199219 C 297.488281 162.199219 288.335938 156.398438 283.242188 152.300781 C 281.460938 150.851562 278.851562 151.140625 277.402344 152.921875 C 275.953125 154.703125 276.242188 157.3125 278.023438 158.761719 Z M 278.023438 158.761719 " fill-opacity="1" fill-rule="nonzero"/></g><g clip-path="url(#334ae60753)"><path fill="#000000" d="M 472.246094 259.390625 C 470.792969 258.191406 457.832031 247.589844 448.722656 247.589844 C 443.339844 247.589844 439.199219 250.941406 435.511719 253.925781 C 432.65625 256.203125 429.964844 258.398438 427.476562 258.398438 C 425.242188 258.398438 422.675781 256.285156 419.941406 254.050781 C 416.253906 251.027344 412.074219 247.589844 406.605469 247.589844 C 401.183594 247.589844 397.125 250.984375 393.519531 253.964844 C 390.746094 256.285156 388.179688 258.4375 385.734375 258.4375 C 383.210938 258.4375 380.515625 256.242188 377.660156 253.882812 C 374.097656 250.941406 370.039062 247.628906 364.863281 247.628906 C 359.480469 247.628906 355.339844 250.984375 351.652344 253.964844 C 348.796875 256.242188 346.105469 258.4375 343.621094 258.4375 C 341.175781 258.4375 338.566406 256.242188 335.835938 253.964844 C 332.230469 250.984375 328.171875 247.589844 322.746094 247.589844 C 317.324219 247.589844 313.265625 250.984375 309.660156 253.964844 C 306.886719 256.285156 304.320312 258.4375 301.875 258.4375 C 297.488281 258.4375 288.335938 252.640625 283.242188 248.542969 C 281.460938 247.09375 278.851562 247.382812 277.402344 249.164062 C 275.953125 250.941406 276.242188 253.550781 278.023438 255 C 279.515625 256.203125 292.808594 266.761719 301.875 266.761719 C 307.300781 266.761719 311.359375 263.367188 314.960938 260.386719 C 317.738281 258.066406 320.304688 255.914062 322.746094 255.914062 C 325.191406 255.914062 327.800781 258.109375 330.535156 260.386719 C 334.136719 263.367188 338.195312 266.761719 343.621094 266.761719 C 349.003906 266.761719 353.144531 263.40625 356.828125 260.425781 C 359.6875 258.148438 362.378906 255.953125 364.863281 255.953125 C 367.101562 255.953125 369.667969 258.066406 372.402344 260.300781 C 376.085938 263.324219 380.269531 266.761719 385.734375 266.761719 C 391.160156 266.761719 395.21875 263.367188 398.820312 260.386719 C 401.597656 258.066406 404.164062 255.914062 406.605469 255.914062 C 409.132812 255.914062 411.824219 258.109375 414.683594 260.46875 C 418.242188 263.40625 422.300781 266.722656 427.476562 266.722656 C 432.863281 266.722656 437.003906 263.367188 440.6875 260.386719 C 443.546875 258.109375 446.238281 255.914062 448.722656 255.914062 C 453.070312 255.914062 461.972656 261.667969 466.902344 265.769531 C 467.6875 266.390625 468.601562 266.722656 469.550781 266.722656 C 470.753906 266.722656 471.914062 266.222656 472.78125 265.230469 C 474.230469 263.449219 473.984375 260.839844 472.246094 259.390625 Z M 472.246094 259.390625 " fill-opacity="1" fill-rule="nonzero"/></g><g clip-path="url(#779ae1ce97)"><path fill="#000000" d="M 472.246094 227.339844 C 470.792969 226.136719 457.832031 215.535156 448.722656 215.535156 C 443.339844 215.535156 439.199219 218.890625 435.511719 221.871094 C 432.65625 224.148438 429.964844 226.34375 427.476562 226.34375 C 425.242188 226.34375 422.675781 224.234375 419.941406 221.996094 C 416.253906 218.972656 412.074219 215.535156 406.605469 215.535156 C 401.183594 215.535156 397.125 218.933594 393.519531 221.914062 C 390.746094 224.234375 388.179688 226.386719 385.734375 226.386719 C 383.210938 226.386719 380.515625 224.191406 377.660156 221.832031 C 374.097656 218.890625 370.039062 215.578125 364.863281 215.578125 C 359.480469 215.578125 355.339844 218.933594 351.652344 221.914062 C 348.796875 224.191406 346.105469 226.386719 343.621094 226.386719 C 341.175781 226.386719 338.566406 224.191406 335.835938 221.914062 C 332.230469 218.933594 328.171875 215.535156 322.746094 215.535156 C 317.324219 215.535156 313.265625 218.933594 309.660156 221.914062 C 306.886719 224.234375 304.320312 226.386719 301.875 226.386719 C 297.488281 226.386719 288.335938 220.589844 283.242188 216.488281 C 281.460938 215.039062 278.851562 215.328125 277.402344 217.109375 C 275.953125 218.890625 276.242188 221.5 278.023438 222.949219 C 279.515625 224.148438 292.808594 234.710938 301.875 234.710938 C 307.300781 234.710938 311.359375 231.3125 314.960938 228.332031 C 317.738281 226.011719 320.304688 223.859375 322.746094 223.859375 C 325.191406 223.859375 327.800781 226.054688 330.535156 228.332031 C 334.136719 231.3125 338.195312 234.710938 343.621094 234.710938 C 349.003906 234.710938 353.144531 231.355469 356.828125 228.375 C 359.6875 226.097656 362.378906 223.902344 364.863281 223.902344 C 367.101562 223.902344 369.667969 226.011719 372.402344 228.25 C 376.085938 231.273438 380.269531 234.710938 385.734375 234.710938 C 391.160156 234.710938 395.21875 231.3125 398.820312 228.332031 C 401.597656 226.011719 404.164062 223.859375 406.605469 223.859375 C 409.132812 223.859375 411.824219 226.054688 414.683594 228.414062 C 418.242188 231.355469 422.300781 234.667969 427.476562 234.667969 C 432.863281 234.667969 437.003906 231.3125 440.6875 228.332031 C 443.546875 226.054688 446.238281 223.859375 448.722656 223.859375 C 453.070312 223.859375 461.972656 229.617188 466.902344 233.714844 C 467.6875 234.335938 468.601562 234.667969 469.550781 234.667969 C 470.753906 234.667969 471.914062 234.128906 472.78125 233.175781 C 474.230469 231.398438 473.984375 228.789062 472.246094 227.339844 Z M 472.246094 227.339844 " fill-opacity="1" fill-rule="nonzero"/></g><g clip-path="url(#0d44799021)"><path fill="#000000" d="M 472.246094 291.484375 C 470.792969 290.242188 457.832031 279.683594 448.722656 279.683594 C 443.339844 279.683594 439.199219 283.039062 435.511719 286.019531 C 432.65625 288.296875 429.964844 290.492188 427.476562 290.492188 C 425.242188 290.492188 422.675781 288.378906 419.941406 286.144531 C 416.253906 283.121094 412.074219 279.683594 406.605469 279.683594 C 401.183594 279.683594 397.125 283.078125 393.519531 286.058594 C 390.746094 288.378906 388.179688 290.53125 385.734375 290.53125 C 383.210938 290.53125 380.515625 288.339844 377.660156 285.976562 C 374.097656 283.039062 370.039062 279.722656 364.863281 279.722656 C 359.480469 279.722656 355.339844 283.078125 351.652344 286.058594 C 348.796875 288.339844 346.105469 290.53125 343.621094 290.53125 C 341.175781 290.53125 338.566406 288.339844 335.835938 286.058594 C 332.230469 283.078125 328.171875 279.683594 322.746094 279.683594 C 317.324219 279.683594 313.265625 283.078125 309.660156 286.058594 C 306.886719 288.378906 304.320312 290.53125 301.875 290.53125 C 297.488281 290.53125 288.335938 284.734375 283.242188 280.636719 C 281.460938 279.1875 278.851562 279.476562 277.402344 281.257812 C 275.953125 283.039062 276.242188 285.644531 278.023438 287.09375 C 279.515625 288.296875 292.808594 298.855469 301.875 298.855469 C 307.300781 298.855469 311.359375 295.460938 314.960938 292.480469 C 317.738281 290.160156 320.304688 288.007812 322.746094 288.007812 C 325.191406 288.007812 327.800781 290.203125 330.535156 292.480469 C 334.136719 295.460938 338.195312 298.855469 343.621094 298.855469 C 349.003906 298.855469 353.144531 295.503906 356.828125 292.519531 C 359.6875 290.242188 362.378906 288.046875 364.863281 288.046875 C 367.101562 288.046875 369.667969 290.160156 372.402344 292.394531 C 376.085938 295.417969 380.269531 298.855469 385.734375 298.855469 C 391.160156 298.855469 395.21875 295.460938 398.820312 292.480469 C 401.597656 290.160156 404.164062 288.007812 406.605469 288.007812 C 409.132812 288.007812 411.824219 290.203125 414.683594 292.5625 C 418.242188 295.503906 422.300781 298.816406 427.476562 298.816406 C 432.863281 298.816406 437.003906 295.460938 440.6875 292.480469 C 443.546875 290.203125 446.238281 288.007812 448.722656 288.007812 C 453.070312 288.007812 461.972656 293.761719 466.902344 297.863281 C 467.6875 298.484375 468.601562 298.816406 469.550781 298.816406 C 470.753906 298.816406 471.914062 298.316406 472.78125 297.324219 C 474.230469 295.542969 473.984375 292.933594 472.246094 291.484375 Z M 472.246094 291.484375 " fill-opacity="1" fill-rule="nonzero"/></g></svg>