<svg xmlns="http://www.w3.org/2000/svg" xmlns:xlink="http://www.w3.org/1999/xlink" width="1000" zoomAndPan="magnify" viewBox="0 0 750 449.999984" height="600" preserveAspectRatio="xMidYMid meet" version="1.0"><path fill="#000000" d="M 472.757812 208.457031 C 427.734375 208.457031 391.097656 171.828125 391.097656 126.796875 C 391.097656 117.785156 383.78125 110.464844 374.769531 110.464844 C 311.726562 110.464844 260.445312 161.75 260.445312 224.789062 C 260.445312 287.828125 311.726562 339.109375 374.769531 339.109375 C 437.808594 339.109375 489.089844 287.828125 489.089844 224.789062 C 489.089844 215.773438 481.773438 208.457031 472.757812 208.457031 Z M 374.769531 306.445312 C 329.742188 306.445312 293.109375 269.816406 293.109375 224.789062 C 293.109375 184.875 321.898438 151.546875 359.808594 144.503906 C 367.433594 193.382812 406.167969 232.113281 455.054688 239.75 C 448.007812 277.664062 414.691406 306.445312 374.769531 306.445312 Z M 374.769531 306.445312 " fill-opacity="1" fill-rule="nonzero"/></svg>