<svg xmlns="http://www.w3.org/2000/svg" xmlns:xlink="http://www.w3.org/1999/xlink" width="1000" zoomAndPan="magnify" viewBox="0 0 750 449.999984" height="600" preserveAspectRatio="xMidYMid meet" version="1.0"><path fill="#000000" d="M 444.4375 159.484375 C 442.480469 159.484375 440.148438 159.789062 437.917969 160.195312 C 429.839844 132.515625 404.542969 113.167969 374.964844 113.167969 C 345.382812 113.167969 320.085938 132.515625 312.003906 160.195312 C 309.78125 159.789062 307.445312 159.484375 305.488281 159.484375 C 282.082031 159.484375 263.03125 178.535156 263.03125 201.941406 C 263.03125 225.351562 282.082031 244.398438 305.488281 244.398438 L 332.507812 244.398438 L 332.507812 306.152344 C 332.507812 310.414062 335.964844 313.875 340.226562 313.875 C 344.488281 313.875 347.945312 310.414062 347.945312 306.152344 L 347.945312 244.398438 L 401.980469 244.398438 L 401.980469 306.152344 C 401.980469 310.414062 405.4375 313.875 409.699219 313.875 C 413.960938 313.875 417.421875 310.414062 417.421875 306.152344 L 417.421875 244.398438 L 444.4375 244.398438 C 467.847656 244.398438 486.894531 225.351562 486.894531 201.941406 C 486.894531 178.535156 467.847656 159.484375 444.4375 159.484375 Z M 444.4375 228.960938 L 305.488281 228.960938 C 290.597656 228.960938 278.46875 216.835938 278.46875 201.941406 C 278.46875 187.050781 290.597656 174.925781 305.488281 174.925781 C 306.558594 174.925781 308.28125 175.1875 310.09375 175.550781 L 310.09375 182.644531 C 310.09375 186.90625 313.554688 190.363281 317.8125 190.363281 C 322.074219 190.363281 325.53125 186.90625 325.53125 182.644531 L 325.53125 170.222656 C 329.675781 146.085938 350.375 128.609375 374.964844 128.609375 C 399.550781 128.609375 420.253906 146.085938 424.394531 170.226562 L 424.394531 182.644531 C 424.394531 186.90625 427.851562 190.363281 432.113281 190.363281 C 436.378906 190.363281 439.832031 186.90625 439.832031 182.644531 L 439.832031 175.554688 C 441.648438 175.191406 443.382812 174.925781 444.4375 174.925781 C 459.332031 174.925781 471.457031 187.050781 471.457031 201.941406 C 471.457031 216.835938 459.332031 228.960938 444.4375 228.960938 Z M 444.4375 228.960938 " fill-opacity="1" fill-rule="nonzero"/><path fill="#000000" d="M 374.964844 252.117188 C 370.703125 252.117188 367.242188 255.578125 367.242188 259.835938 L 367.242188 329.3125 C 367.242188 333.574219 370.703125 337.03125 374.964844 337.03125 C 379.226562 337.03125 382.683594 333.574219 382.683594 329.3125 L 382.683594 259.835938 C 382.683594 255.578125 379.226562 252.117188 374.964844 252.117188 Z M 374.964844 252.117188 " fill-opacity="1" fill-rule="nonzero"/></svg>