<svg xmlns="http://www.w3.org/2000/svg" xmlns:xlink="http://www.w3.org/1999/xlink" width="1000" zoomAndPan="magnify" viewBox="0 0 750 449.999984" height="600" preserveAspectRatio="xMidYMid meet" version="1.0"><path fill="#000000" d="M 472.816406 273.210938 L 450.308594 260.210938 L 463.117188 256.777344 C 466.984375 255.742188 469.277344 251.765625 468.242188 247.90625 C 467.207031 244.039062 463.226562 241.726562 459.367188 242.777344 L 432.554688 249.960938 L 412.652344 238.472656 L 436.324219 232.125 C 439.316406 231.324219 441.464844 228.71875 441.679688 225.625 C 441.894531 222.539062 440.125 219.65625 437.273438 218.453125 L 416.386719 209.625 L 432.558594 200.289062 L 459.359375 207.464844 C 459.992188 207.636719 460.621094 207.71875 461.242188 207.71875 C 464.449219 207.71875 467.371094 205.578125 468.242188 202.339844 C 469.277344 198.476562 466.980469 194.5 463.117188 193.464844 L 450.316406 190.039062 L 472.824219 177.046875 C 476.292969 175.042969 477.476562 170.613281 475.480469 167.144531 C 473.472656 163.675781 469.042969 162.488281 465.578125 164.492188 L 443.074219 177.480469 L 446.496094 164.691406 C 447.535156 160.824219 445.238281 156.847656 441.375 155.8125 C 437.480469 154.765625 433.535156 157.074219 432.496094 160.941406 L 425.320312 187.734375 L 409.152344 197.074219 L 411.945312 174.578125 C 412.304688 171.6875 410.902344 168.867188 408.378906 167.410156 C 405.859375 165.957031 402.703125 166.152344 400.386719 167.902344 L 382.308594 181.570312 L 382.308594 162.898438 L 401.921875 143.285156 C 404.753906 140.457031 404.753906 135.871094 401.921875 133.042969 C 399.089844 130.210938 394.503906 130.210938 391.671875 133.042969 L 382.308594 142.402344 L 382.308594 116.410156 C 382.308594 112.410156 379.0625 109.164062 375.0625 109.164062 C 371.054688 109.164062 367.8125 112.410156 367.8125 116.410156 L 367.8125 142.40625 L 358.4375 133.027344 C 355.609375 130.199219 351.019531 130.199219 348.191406 133.027344 C 345.359375 135.855469 345.359375 140.449219 348.191406 143.277344 L 367.8125 162.90625 L 367.8125 181.566406 L 349.726562 167.878906 C 347.257812 166.011719 343.875 165.917969 341.308594 167.648438 C 338.738281 169.378906 337.550781 172.546875 338.355469 175.535156 L 344.707031 199.234375 L 324.800781 187.742188 L 317.609375 160.941406 C 316.582031 157.082031 312.601562 154.769531 308.738281 155.820312 C 304.871094 156.855469 302.578125 160.832031 303.613281 164.695312 L 307.042969 177.488281 L 284.535156 164.496094 C 281.058594 162.492188 276.632812 163.679688 274.632812 167.148438 C 272.632812 170.617188 273.820312 175.046875 277.285156 177.046875 L 299.792969 190.039062 L 286.996094 193.464844 C 283.132812 194.503906 280.839844 198.476562 281.875 202.339844 C 282.742188 205.582031 285.667969 207.71875 288.871094 207.71875 C 289.492188 207.710938 290.125 207.636719 290.753906 207.464844 L 317.546875 200.289062 L 337.449219 211.777344 L 313.789062 218.121094 C 310.800781 218.921875 308.644531 221.53125 308.4375 224.621094 C 308.222656 227.707031 309.996094 230.589844 312.847656 231.792969 L 333.71875 240.621094 L 317.542969 249.957031 L 290.761719 242.777344 C 286.898438 241.734375 282.917969 244.039062 281.882812 247.90625 C 280.847656 251.765625 283.144531 255.742188 287.011719 256.777344 L 299.792969 260.207031 L 277.292969 273.195312 C 273.824219 275.199219 272.644531 279.625 274.640625 283.09375 C 275.984375 285.421875 278.421875 286.71875 280.925781 286.71875 C 282.15625 286.71875 283.402344 286.40625 284.539062 285.746094 L 307.054688 272.75 L 303.625 285.558594 C 302.589844 289.421875 304.882812 293.398438 308.75 294.433594 C 309.375 294.605469 310.007812 294.683594 310.628906 294.683594 C 313.824219 294.683594 316.753906 292.542969 317.625 289.308594 L 324.808594 262.5 L 340.96875 253.167969 L 338.175781 275.667969 C 337.816406 278.554688 339.21875 281.375 341.742188 282.835938 C 344.265625 284.285156 347.417969 284.09375 349.738281 282.339844 L 367.808594 268.675781 L 367.808594 287.351562 L 348.183594 306.972656 C 345.355469 309.804688 345.355469 314.390625 348.183594 317.21875 C 351.015625 320.050781 355.605469 320.050781 358.433594 317.21875 L 367.808594 307.84375 L 367.808594 333.839844 C 367.808594 337.839844 371.050781 341.089844 375.058594 341.089844 C 379.058594 341.089844 382.304688 337.839844 382.304688 333.839844 L 382.304688 307.851562 L 391.671875 317.21875 C 393.089844 318.636719 394.941406 319.34375 396.796875 319.34375 C 398.652344 319.34375 400.503906 318.636719 401.921875 317.21875 C 404.753906 314.390625 404.753906 309.804688 401.921875 306.972656 L 382.304688 287.355469 L 382.304688 268.6875 L 400.402344 282.375 C 401.6875 283.347656 403.230469 283.839844 404.773438 283.839844 C 406.1875 283.839844 407.597656 283.433594 408.820312 282.605469 C 411.390625 280.875 412.574219 277.703125 411.773438 274.710938 L 405.414062 251.03125 L 425.320312 262.527344 L 432.496094 289.3125 C 433.363281 292.554688 436.289062 294.6875 439.492188 294.6875 C 440.113281 294.6875 440.742188 294.605469 441.375 294.4375 C 445.238281 293.40625 447.535156 289.429688 446.496094 285.5625 L 443.074219 272.777344 L 465.570312 285.765625 C 466.71875 286.425781 467.960938 286.738281 469.1875 286.738281 C 471.695312 286.738281 474.128906 285.441406 475.472656 283.113281 C 477.472656 279.644531 476.289062 275.210938 472.816406 273.210938 Z M 412.191406 223.585938 L 394.898438 228.21875 L 389.535156 225.125 L 400.652344 218.707031 Z M 395.441406 189.800781 L 393.410156 206.148438 L 382.300781 212.5625 L 382.300781 199.738281 Z M 357.808594 192.179688 L 367.808594 199.742188 L 367.808594 212.578125 L 362.441406 209.484375 Z M 337.902344 226.664062 L 355.183594 222.035156 L 360.539062 225.125 L 349.433594 231.542969 Z M 354.652344 260.445312 L 356.683594 244.09375 L 367.808594 237.667969 L 367.808594 250.503906 Z M 392.300781 258.074219 L 382.304688 250.515625 L 382.304688 237.6875 L 387.65625 240.785156 Z M 392.300781 258.074219 " fill-opacity="1" fill-rule="nonzero"/></svg>