<svg xmlns="http://www.w3.org/2000/svg" xmlns:xlink="http://www.w3.org/1999/xlink" width="1000" zoomAndPan="magnify" viewBox="0 0 750 449.999984" height="600" preserveAspectRatio="xMidYMid meet" version="1.0"><defs><clipPath id="2ffa3e9c9e"><path d="M 262.359375 107.816406 L 487.859375 107.816406 L 487.859375 343.964844 L 262.359375 343.964844 Z M 262.359375 107.816406 " clip-rule="nonzero"/></clipPath></defs><path fill="#000000" d="M 375.175781 166.007812 C 342.15625 166.007812 315.292969 192.871094 315.292969 225.890625 C 315.292969 258.910156 342.15625 285.773438 375.175781 285.773438 C 408.191406 285.773438 435.054688 258.910156 435.054688 225.890625 C 435.054688 192.871094 408.191406 166.007812 375.175781 166.007812 Z M 375.175781 166.007812 " fill-opacity="1" fill-rule="nonzero"/><g clip-path="url(#2ffa3e9c9e)"><path fill="#000000" d="M 464.390625 225.890625 L 486.316406 196.421875 C 487.816406 194.40625 488.242188 191.792969 487.46875 189.40625 C 486.695312 187.015625 484.808594 185.152344 482.410156 184.402344 L 447.347656 173.453125 L 447.765625 136.71875 C 447.796875 134.210938 446.605469 131.84375 444.574219 130.367188 C 442.542969 128.890625 439.921875 128.492188 437.546875 129.292969 L 402.742188 141.042969 L 381.488281 111.082031 C 380.039062 109.035156 377.6875 107.816406 375.175781 107.816406 C 372.660156 107.816406 370.308594 109.035156 368.855469 111.082031 L 347.605469 141.042969 L 312.800781 129.292969 C 310.421875 128.492188 307.800781 128.890625 305.773438 130.367188 C 303.738281 131.84375 302.546875 134.210938 302.578125 136.722656 L 303 173.453125 L 267.933594 184.402344 C 265.539062 185.152344 263.652344 187.015625 262.878906 189.40625 C 262.105469 191.792969 262.53125 194.40625 264.03125 196.421875 L 285.960938 225.890625 L 264.03125 255.363281 C 262.53125 257.375 262.105469 259.992188 262.878906 262.378906 C 263.652344 264.765625 265.539062 266.628906 267.933594 267.378906 L 303 278.328125 L 302.578125 315.0625 C 302.546875 317.570312 303.738281 319.9375 305.773438 321.417969 C 307.800781 322.890625 310.421875 323.292969 312.800781 322.488281 L 347.605469 310.738281 L 368.855469 340.699219 C 370.308594 342.75 372.660156 343.964844 375.175781 343.964844 C 377.6875 343.964844 380.039062 342.75 381.488281 340.699219 L 402.742188 310.738281 L 437.546875 322.488281 C 439.921875 323.292969 442.542969 322.890625 444.574219 321.417969 C 446.609375 319.9375 447.796875 317.570312 447.769531 315.0625 L 447.347656 278.328125 L 482.410156 267.378906 C 484.808594 266.628906 486.695312 264.765625 487.46875 262.378906 C 488.242188 259.992188 487.816406 257.375 486.316406 255.363281 Z M 375.175781 301.265625 C 333.613281 301.265625 299.796875 267.453125 299.796875 225.890625 C 299.796875 184.328125 333.613281 150.515625 375.175781 150.515625 C 416.734375 150.515625 450.550781 184.328125 450.550781 225.890625 C 450.550781 267.453125 416.734375 301.265625 375.175781 301.265625 Z M 375.175781 301.265625 " fill-opacity="1" fill-rule="nonzero"/></g></svg>