<svg xmlns="http://www.w3.org/2000/svg" xmlns:xlink="http://www.w3.org/1999/xlink" width="1000" zoomAndPan="magnify" viewBox="0 0 750 449.999984" height="600" preserveAspectRatio="xMidYMid meet" version="1.0"><path fill="#000000" d="M 437.28125 170.371094 C 439.539062 170.371094 441.792969 169.511719 443.511719 167.789062 L 455.972656 155.328125 C 459.414062 151.886719 459.414062 146.308594 455.972656 142.871094 C 452.535156 139.429688 446.949219 139.429688 443.515625 142.871094 L 431.054688 155.332031 C 427.613281 158.773438 427.613281 164.351562 431.054688 167.789062 C 432.769531 169.511719 435.027344 170.371094 437.28125 170.371094 Z M 295.691406 223.859375 C 295.691406 218.996094 291.746094 215.050781 286.882812 215.050781 L 269.261719 215.050781 C 264.398438 215.050781 260.449219 218.996094 260.449219 223.859375 C 260.449219 228.722656 264.398438 232.671875 269.261719 232.671875 L 286.882812 232.671875 C 291.746094 232.671875 295.691406 228.722656 295.691406 223.859375 Z M 306.457031 279.929688 L 293.996094 292.390625 C 290.554688 295.832031 290.554688 301.40625 293.996094 304.847656 C 295.714844 306.570312 297.972656 307.429688 300.226562 307.429688 C 302.480469 307.429688 304.738281 306.570312 306.453125 304.847656 L 318.917969 292.382812 C 322.359375 288.945312 322.359375 283.371094 318.917969 279.929688 C 315.480469 276.488281 309.894531 276.488281 306.457031 279.929688 Z M 306.457031 167.789062 C 308.175781 169.511719 310.429688 170.371094 312.6875 170.371094 C 314.941406 170.371094 317.195312 169.511719 318.917969 167.789062 C 322.359375 164.351562 322.359375 158.773438 318.917969 155.332031 L 306.453125 142.871094 C 303.015625 139.429688 297.433594 139.429688 293.996094 142.871094 C 290.554688 146.308594 290.554688 151.886719 293.996094 155.328125 Z M 374.984375 144.566406 C 379.851562 144.566406 383.796875 140.617188 383.796875 135.757812 L 383.796875 118.136719 C 383.796875 113.273438 379.851562 109.324219 374.984375 109.324219 C 370.121094 109.324219 366.175781 113.273438 366.175781 118.136719 L 366.175781 135.757812 C 366.175781 140.617188 370.121094 144.566406 374.984375 144.566406 Z M 480.710938 215.050781 L 463.089844 215.050781 C 458.226562 215.050781 454.277344 218.996094 454.277344 223.859375 C 454.277344 228.722656 458.226562 232.671875 463.089844 232.671875 L 480.710938 232.671875 C 485.574219 232.671875 489.519531 228.722656 489.519531 223.859375 C 489.519531 218.996094 485.574219 215.050781 480.710938 215.050781 Z M 443.511719 279.929688 C 440.074219 276.488281 434.492188 276.488281 431.054688 279.929688 C 427.613281 283.371094 427.613281 288.945312 431.054688 292.382812 L 443.515625 304.847656 C 445.234375 306.570312 447.488281 307.429688 449.746094 307.429688 C 452 307.429688 454.253906 306.570312 455.972656 304.847656 C 459.414062 301.40625 459.414062 295.832031 455.972656 292.390625 Z M 374.984375 303.152344 C 370.121094 303.152344 366.175781 307.097656 366.175781 311.964844 L 366.175781 329.585938 C 366.175781 334.445312 370.121094 338.394531 374.984375 338.394531 C 379.851562 338.394531 383.796875 334.445312 383.796875 329.585938 L 383.796875 311.964844 C 383.796875 307.097656 379.851562 303.152344 374.984375 303.152344 Z M 374.984375 162.1875 C 340.976562 162.1875 313.3125 189.851562 313.3125 223.859375 C 313.3125 257.867188 340.976562 285.53125 374.984375 285.53125 C 408.992188 285.53125 436.65625 257.867188 436.65625 223.859375 C 436.65625 189.851562 408.992188 162.1875 374.984375 162.1875 Z M 374.984375 267.910156 C 350.695312 267.910156 330.933594 248.148438 330.933594 223.859375 C 330.933594 199.570312 350.695312 179.808594 374.984375 179.808594 C 399.277344 179.808594 419.039062 199.570312 419.039062 223.859375 C 419.039062 248.148438 399.277344 267.910156 374.984375 267.910156 Z M 374.984375 267.910156 " fill-opacity="1" fill-rule="nonzero"/></svg>