<svg xmlns="http://www.w3.org/2000/svg" xmlns:xlink="http://www.w3.org/1999/xlink" width="1000" zoomAndPan="magnify" viewBox="0 0 750 449.999984" height="600" preserveAspectRatio="xMidYMid meet" version="1.0"><path fill="#000000" d="M 478.238281 248.550781 C 482.199219 240.523438 484.292969 231.699219 484.292969 222.621094 C 484.292969 190.257812 457.96875 163.933594 425.609375 163.933594 C 406.320312 163.933594 388.324219 173.496094 377.417969 189.171875 C 376.714844 189.152344 376.019531 189.085938 375.308594 189.085938 C 343.183594 189.085938 315.707031 210.089844 306.9375 240.15625 C 304.519531 239.71875 301.980469 239.386719 299.859375 239.386719 C 274.429688 239.386719 253.746094 260.070312 253.746094 285.496094 C 253.746094 310.917969 274.429688 331.605469 299.859375 331.605469 L 450.761719 331.605469 C 476.183594 331.605469 496.871094 310.917969 496.871094 285.496094 C 496.871094 270.371094 489.519531 256.96875 478.238281 248.550781 Z M 425.609375 180.703125 C 448.71875 180.703125 467.527344 199.503906 467.527344 222.621094 C 467.527344 229.109375 466.015625 235.402344 463.179688 241.132812 C 459.222656 240.019531 455.066406 239.386719 450.761719 239.386719 C 448.632812 239.386719 446.101562 239.71875 443.675781 240.15625 C 436.9375 217.054688 419.140625 199.351562 396.6875 192.367188 C 404.390625 185.015625 414.695312 180.703125 425.609375 180.703125 Z M 450.761719 314.839844 L 299.859375 314.839844 C 283.679688 314.839844 270.515625 301.671875 270.515625 285.496094 C 270.515625 269.320312 283.679688 256.152344 299.859375 256.152344 C 301.019531 256.152344 302.886719 256.4375 304.859375 256.832031 L 304.859375 264.539062 C 304.859375 269.164062 308.613281 272.921875 313.242188 272.921875 C 317.867188 272.921875 321.625 269.164062 321.625 264.539062 L 321.625 251.042969 C 326.121094 224.832031 348.601562 205.851562 375.308594 205.851562 C 402.019531 205.851562 424.503906 224.839844 428.992188 251.066406 L 428.992188 264.539062 C 428.992188 269.164062 432.75 272.921875 437.375 272.921875 C 442.003906 272.921875 445.761719 269.164062 445.761719 264.539062 L 445.761719 256.835938 C 447.734375 256.441406 449.613281 256.152344 450.761719 256.152344 C 466.9375 256.152344 480.105469 269.320312 480.105469 285.496094 C 480.105469 301.671875 466.9375 314.839844 450.761719 314.839844 Z M 450.761719 314.839844 " fill-opacity="1" fill-rule="nonzero"/><path fill="#000000" d="M 425.609375 147.167969 C 430.234375 147.167969 433.992188 143.410156 433.992188 138.785156 L 433.992188 122.015625 C 433.992188 117.386719 430.234375 113.632812 425.609375 113.632812 C 420.976562 113.632812 417.226562 117.386719 417.226562 122.015625 L 417.226562 138.785156 C 417.226562 143.410156 420.976562 147.167969 425.609375 147.167969 Z M 425.609375 147.167969 " fill-opacity="1" fill-rule="nonzero"/><path fill="#000000" d="M 526.210938 214.234375 L 509.445312 214.234375 C 504.8125 214.234375 501.0625 217.992188 501.0625 222.621094 C 501.0625 227.246094 504.8125 231.003906 509.445312 231.003906 L 526.210938 231.003906 C 530.835938 231.003906 534.59375 227.246094 534.59375 222.621094 C 534.59375 217.992188 530.835938 214.234375 526.210938 214.234375 Z M 526.210938 214.234375 " fill-opacity="1" fill-rule="nonzero"/><path fill="#000000" d="M 484.894531 171.71875 C 487.035156 171.71875 489.179688 170.902344 490.820312 169.261719 L 502.675781 157.40625 C 505.949219 154.132812 505.949219 148.824219 502.675781 145.554688 C 499.398438 142.28125 494.09375 142.28125 490.820312 145.554688 L 478.964844 157.40625 C 475.691406 160.679688 475.691406 165.988281 478.964844 169.261719 C 480.597656 170.902344 482.746094 171.71875 484.894531 171.71875 Z M 484.894531 171.71875 " fill-opacity="1" fill-rule="nonzero"/><path fill="#000000" d="M 360.394531 169.261719 C 362.035156 170.902344 364.175781 171.71875 366.324219 171.71875 C 368.46875 171.71875 370.609375 170.902344 372.25 169.261719 C 375.523438 165.988281 375.523438 160.679688 372.25 157.40625 L 360.394531 145.554688 C 357.125 142.28125 351.816406 142.28125 348.542969 145.554688 C 345.269531 148.824219 345.269531 154.132812 348.542969 157.40625 Z M 360.394531 169.261719 " fill-opacity="1" fill-rule="nonzero"/></svg>