<svg xmlns="http://www.w3.org/2000/svg" xmlns:xlink="http://www.w3.org/1999/xlink" width="1000" zoomAndPan="magnify" viewBox="0 0 750 449.999984" height="600" preserveAspectRatio="xMidYMid meet" version="1.0"><path fill="#000000" d="M 383.488281 265.238281 L 383.488281 216.679688 C 383.488281 211.988281 379.679688 208.179688 374.988281 208.179688 C 370.289062 208.179688 366.484375 211.988281 366.484375 216.679688 L 366.484375 265.238281 C 358.992188 268.519531 353.734375 275.996094 353.734375 284.6875 C 353.734375 296.40625 363.265625 305.941406 374.988281 305.941406 C 386.703125 305.941406 396.238281 296.40625 396.238281 284.6875 C 396.238281 275.996094 390.980469 268.519531 383.488281 265.238281 Z M 374.988281 288.941406 C 372.640625 288.941406 370.738281 287.035156 370.738281 284.6875 C 370.738281 282.34375 372.640625 280.4375 374.988281 280.4375 C 377.332031 280.4375 379.238281 282.34375 379.238281 284.6875 C 379.238281 287.035156 377.332031 288.941406 374.988281 288.941406 Z M 374.988281 288.941406 " fill-opacity="1" fill-rule="nonzero"/><path fill="#000000" d="M 409.027344 252.636719 L 408.992188 144.421875 C 408.992188 125.671875 393.738281 110.417969 374.988281 110.417969 C 356.238281 110.417969 340.984375 125.671875 340.984375 144.417969 L 340.9375 252.636719 C 332.820312 261.277344 328.230469 272.753906 328.230469 284.6875 C 328.230469 310.46875 349.207031 331.445312 374.988281 331.445312 C 400.765625 331.445312 421.742188 310.46875 421.742188 284.6875 C 421.742188 272.746094 417.152344 261.269531 409.027344 252.636719 Z M 374.988281 314.441406 C 358.585938 314.441406 345.234375 301.089844 345.234375 284.6875 C 345.234375 276.253906 348.835938 268.175781 355.125 262.53125 C 356.914062 260.914062 357.941406 258.617188 357.941406 256.210938 L 357.984375 144.421875 C 357.984375 135.042969 365.609375 127.421875 374.988281 127.421875 C 384.363281 127.421875 391.988281 135.042969 391.988281 144.425781 L 392.027344 256.210938 C 392.027344 258.617188 393.050781 260.917969 394.851562 262.53125 C 401.128906 268.175781 404.742188 276.25 404.742188 284.6875 C 404.742188 301.089844 391.390625 314.441406 374.988281 314.441406 Z M 374.988281 314.441406 " fill-opacity="1" fill-rule="nonzero"/></svg>