<svg xmlns="http://www.w3.org/2000/svg" xmlns:xlink="http://www.w3.org/1999/xlink" width="1000" zoomAndPan="magnify" viewBox="0 0 750 449.999984" height="600" preserveAspectRatio="xMidYMid meet" version="1.0"><path fill="#000000" d="M 451.605469 167.363281 C 449.449219 167.363281 446.886719 167.699219 444.441406 168.144531 C 435.5625 137.71875 407.753906 116.457031 375.242188 116.457031 C 342.730469 116.457031 314.921875 137.71875 306.042969 168.144531 C 303.597656 167.699219 301.03125 167.363281 298.878906 167.363281 C 273.152344 167.363281 252.214844 188.300781 252.214844 214.03125 C 252.214844 239.761719 273.152344 260.695312 298.878906 260.695312 L 346.660156 260.695312 L 330.003906 285.6875 C 328.265625 288.289062 328.105469 291.636719 329.578125 294.394531 C 331.058594 297.15625 333.933594 298.878906 337.0625 298.878906 L 346.660156 298.878906 L 330.003906 323.871094 C 327.40625 327.769531 328.457031 333.035156 332.355469 335.632812 C 333.800781 336.601562 335.433594 337.058594 337.050781 337.058594 C 339.792969 337.058594 342.484375 335.730469 344.121094 333.277344 L 369.574219 295.097656 C 371.3125 292.5 371.472656 289.152344 370 286.386719 C 368.515625 283.632812 365.644531 281.910156 362.515625 281.910156 L 352.914062 281.910156 L 367.054688 260.695312 L 389.082031 260.695312 L 380.90625 272.960938 C 379.171875 275.5625 379.011719 278.90625 380.480469 281.667969 C 381.964844 284.425781 384.84375 286.152344 387.96875 286.152344 L 397.570312 286.152344 L 389.394531 298.414062 C 386.800781 302.316406 387.851562 307.582031 391.75 310.179688 C 393.191406 311.144531 394.828125 311.605469 396.445312 311.605469 C 399.1875 311.605469 401.878906 310.277344 403.511719 307.824219 L 420.484375 282.371094 C 422.21875 279.769531 422.382812 276.425781 420.90625 273.660156 C 419.425781 270.90625 416.550781 269.179688 413.425781 269.179688 L 403.824219 269.179688 L 409.480469 260.695312 L 451.605469 260.695312 C 477.335938 260.695312 498.269531 239.761719 498.269531 214.03125 C 498.269531 188.300781 477.335938 167.363281 451.605469 167.363281 Z M 451.605469 243.726562 L 298.878906 243.726562 C 282.507812 243.726562 269.183594 230.402344 269.183594 214.03125 C 269.183594 197.660156 282.507812 184.335938 298.878906 184.335938 C 300.054688 184.335938 301.945312 184.621094 303.941406 185.019531 L 303.941406 192.820312 C 303.941406 197.5 307.738281 201.304688 312.425781 201.304688 C 317.113281 201.304688 320.910156 197.5 320.910156 192.820312 L 320.910156 179.164062 C 325.464844 152.636719 348.214844 133.425781 375.242188 133.425781 C 402.265625 133.425781 425.019531 152.636719 429.574219 179.167969 L 429.574219 192.820312 C 429.574219 197.5 433.375 201.304688 438.058594 201.304688 C 442.742188 201.304688 446.546875 197.5 446.546875 192.820312 L 446.546875 185.027344 C 448.535156 184.625 450.441406 184.335938 451.605469 184.335938 C 467.976562 184.335938 481.300781 197.660156 481.300781 214.03125 C 481.300781 230.402344 467.976562 243.726562 451.605469 243.726562 Z M 451.605469 243.726562 " fill-opacity="1" fill-rule="nonzero"/></svg>