<svg xmlns="http://www.w3.org/2000/svg" xmlns:xlink="http://www.w3.org/1999/xlink" width="1000" zoomAndPan="magnify" viewBox="0 0 750 449.999984" height="600" preserveAspectRatio="xMidYMid meet" version="1.0"><path fill="#000000" d="M 407.785156 211.402344 L 242.996094 211.394531 C 236.933594 211.394531 232.007812 216.316406 232.007812 222.378906 C 232.007812 228.445312 236.933594 233.367188 242.996094 233.367188 L 407.785156 233.371094 C 428.980469 233.371094 446.234375 250.625 446.234375 271.820312 C 446.234375 293.015625 428.980469 310.269531 407.785156 310.269531 C 401.714844 310.269531 396.800781 315.191406 396.800781 321.257812 C 396.800781 327.320312 401.714844 332.242188 407.785156 332.242188 C 441.101562 332.242188 468.207031 305.132812 468.207031 271.820312 C 468.207031 238.507812 441.101562 211.402344 407.785156 211.402344 Z M 407.785156 211.402344 " fill-opacity="1" fill-rule="nonzero"/><path fill="#000000" d="M 374.820312 244.359375 L 243 244.359375 C 236.9375 244.359375 232.015625 249.277344 232.015625 255.34375 C 232.015625 261.40625 236.9375 266.328125 243 266.328125 L 374.820312 266.328125 C 377.855469 266.328125 380.3125 268.789062 380.3125 271.820312 C 380.3125 274.851562 377.855469 277.316406 374.820312 277.316406 C 368.753906 277.316406 363.835938 282.234375 363.835938 288.300781 C 363.835938 294.363281 368.753906 299.285156 374.820312 299.285156 C 389.964844 299.285156 402.285156 286.964844 402.285156 271.820312 C 402.285156 256.675781 389.964844 244.359375 374.820312 244.359375 Z M 374.820312 244.359375 " fill-opacity="1" fill-rule="nonzero"/><path fill="#000000" d="M 490.175781 167.460938 C 484.109375 167.460938 479.191406 172.378906 479.191406 178.445312 C 479.191406 184.507812 484.109375 189.429688 490.175781 189.429688 C 493.207031 189.429688 495.667969 191.890625 495.667969 194.921875 C 495.667969 197.953125 493.207031 200.417969 490.175781 200.417969 L 468.207031 200.417969 C 462.136719 200.417969 457.21875 205.335938 457.21875 211.402344 C 457.21875 217.464844 462.136719 222.386719 468.207031 222.386719 L 490.175781 222.386719 C 505.316406 222.386719 517.640625 210.066406 517.640625 194.921875 C 517.640625 179.777344 505.316406 167.460938 490.175781 167.460938 Z M 490.175781 167.460938 " fill-opacity="1" fill-rule="nonzero"/><path fill="#000000" d="M 242.996094 200.410156 L 424.261719 200.417969 C 448.492188 200.417969 468.207031 180.703125 468.207031 156.472656 C 468.207031 132.246094 448.492188 112.53125 424.261719 112.53125 C 400.035156 112.53125 380.320312 132.246094 380.320312 156.472656 C 380.320312 162.535156 385.238281 167.460938 391.304688 167.460938 C 397.367188 167.460938 402.292969 162.535156 402.292969 156.472656 C 402.292969 144.355469 412.144531 134.503906 424.261719 134.503906 C 436.378906 134.503906 446.234375 144.355469 446.234375 156.472656 C 446.234375 168.589844 436.378906 178.445312 424.261719 178.445312 L 242.996094 178.4375 C 236.933594 178.4375 232.007812 183.359375 232.007812 189.425781 C 232.007812 195.488281 236.933594 200.410156 242.996094 200.410156 Z M 242.996094 200.410156 " fill-opacity="1" fill-rule="nonzero"/></svg>